# xmcd
#
# Track frame offsets:
#  150
#  11557
#  25050
#  48659
#  61910
#  75335
#  83526
#  99743
#  106550
#  115858
#  123237
#  134439
#  148700
#  160045
#  170339
#  183446
#  199699
#  215000
#  231680
#  246341
#  266849
#  282428
#  292938
#  316908
#  327930
#
# Disc length: 4590 seconds
#
# Revision: 0
# Processed by: cddbd v1.5.1PL0 Copyright (c) Steve Scherf et al.
# Submitted via: AltoMP3_Maker 3.0
#
DISCID=6211ec19
DTITLE=Johnny Cash - 8-25-90 Beast In Me
DYEAR=1900
DGENRE=
TTITLE0=Ring of Fire
TTITLE1=Folsom Prison Blues
TTITLE2=Sunday Mornin' Coming Down
TTITLE3=Get Rhythm
TTITLE4=Restless
TTITLE5=Under The Double Eagle
TTITLE6=Ridge This Train
TTITLE7=Pickin' Time
TTITLE8=Busted
TTITLE9=Life's Evening Sun
TTITLE10=Hey Porter
TTITLE11=Ragged Old Flag
TTITLE12=You Win Again
TTITLE13=Big River
TTITLE14=I Still Miss Someone
TTITLE15=Call Me The Breeze
TTITLE16=Tennessee Flat-top Box
TTITLE17=Ghost Riders In The Sky
TTITLE18=Jackson
TTITLE19=If I Were A Carpenter
TTITLE20=Jordan
TTITLE21=Wreck of Old '89
TTITLE22=Gospel Boogie
TTITLE23=Fourth Man
TTITLE24=I Walk The Line
EXTD=
EXTT0=
EXTT1=
EXTT2=
EXTT3=
EXTT4=
EXTT5=
EXTT6=
EXTT7=
EXTT8=
EXTT9=
EXTT10=
EXTT11=
EXTT12=
EXTT13=
EXTT14=
EXTT15=
EXTT16=
EXTT17=
EXTT18=
EXTT19=
EXTT20=
EXTT21=
EXTT22=
EXTT23=
EXTT24=
PLAYORDER=
